<svg viewBox="0 0 69 124" version="1" xmlns="http://www.w3.org/2000/svg" xmlns:xlink="http://www.w3.org/1999/xlink"><g stroke="none" stroke-width="1" fill="none" fill-rule="evenodd"><g transform="translate(-373, -1103)" stroke="#FEFEFE" stroke-width="4"><g id="Loans" transform="translate(0, 999)"><path d="M438,178 C437,176 435,174 433,171 C432,170 431,169 430,168 C429,167 427,165 425,164 C424,163 422,161 421,160 C419,159 418,158 416,157 C413,155 411,154 409,152 C408,151 406,150 405,148 C404,147 403,146 403,145 C403,145 403,144 403,144 C403,143 403,143 403,142 C403,142 404,141 405,141 C406,140 408,140 409,140 C410,141 411,141 411,141 C412,142 412,143 412,144 C412,147 414,150 416,152 C422,156 430,156 436,152 C438,149 440,147 440,144 C440,140 439,136 437,133 C434,128 431,125 425,122 C421,119 417,118 412,118 L412,110 C412,108 410,106 407,106 C405,106 403,108 403,110 L403,117 C400,118 398,118 395,119 C389,121 385,124 381,129 C379,131 377,133 377,136 C376,138 375,141 375,144 C375,147 376,150 378,154 C380,158 383,162 387,166 C389,167 391,169 393,171 L399,175 C402,177 404,178 406,180 C407,181 409,182 410,184 C411,185 412,186 412,187 C412,187 412,188 412,188 C412,189 412,189 412,190 C412,190 411,191 410,191 C410,192 409,192 408,192 C407,192 406,192 406,192 C405,191 404,191 404,190 C403,189 403,189 403,188 C403,185 401,182 399,180 C393,176 385,176 379,180 C377,182 375,185 375,188 C375,192 376,195 378,199 C380,204 384,207 390,210 C394,213 398,214 403,214 L403,222 C403,224 405,226 408,226 C410,226 412,224 412,222 L412,214 C415,214 417,214 420,213 C426,211 431,207 434,203 C438,199 440,194 440,188 C440,185 439,182 438,178 L438,178 Z" id="Stroke-3-Copy"></path></g></g></g></svg>