<?xml version="1.0" encoding="UTF-8" standalone="no"?>
<svg width="69px" height="124px" viewBox="0 0 69 124" version="1.1" xmlns="http://www.w3.org/2000/svg" xmlns:xlink="http://www.w3.org/1999/xlink">
    <!-- Generator: Sketch 3.7.2 (28276) - http://www.bohemiancoding.com/sketch -->
    <title>Stroke 3</title>
    <desc>Created with Sketch.</desc>
    <defs></defs>
    <g id="Page-1" stroke="none" stroke-width="1" fill="none" fill-rule="evenodd">
        <g id="Desktop" transform="translate(-478.000000, -1103.000000)" stroke="#FEFEFE" stroke-width="4" fill="#FFCC06">
            <g id="Loans" transform="translate(0.000000, 999.000000)">
                <path d="M538.232,171.494 C537.192,170.324 536.074,169.128 534.882,167.917 C533.586,166.604 532.074,165.247 530.462,163.964 C528.863,162.595 527.195,161.301 525.505,160.124 C524.131,159.157 522.84,158.271 521.284,157.21 C518.463,155.245 516.119,153.528 514.238,152.065 C512.6,150.775 511.27,149.564 510.225,148.375 C509.168,147.243 508.483,146.279 507.898,145.015 C507.647,144.588 507.539,144.145 507.539,143.579 C507.539,143.122 507.634,142.709 507.825,142.353 C508.202,141.648 508.735,141.138 509.588,140.669 C511.213,139.758 512.929,139.747 514.316,140.226 C515.295,140.56 516.088,141.059 516.452,141.415 C517.037,142.184 517.297,142.851 517.297,143.579 C517.297,146.692 518.736,149.5 521.479,151.698 C526.735,155.902 535.25,155.913 540.524,151.69 C543.258,149.497 544.697,146.692 544.697,143.579 C544.697,139.93 543.869,136.428 542.132,133.004 C539.458,128.32 535.515,124.51 530.401,121.675 C526.28,119.418 521.726,118.038 516.825,117.513 L516.825,109.75 C516.825,107.68 514.888,106 512.492,106 C510.095,106 508.158,107.68 508.158,109.75 L508.158,117.486 C505.255,117.786 502.508,118.372 500.012,119.279 C494.409,121.135 489.586,124.266 485.517,128.77 C483.827,130.889 482.483,133.207 481.517,135.637 C480.512,138.153 480,140.827 480,143.579 C480,146.969 480.858,150.468 482.566,153.982 C484.55,158.024 487.757,161.973 491.956,165.584 C493.78,167.317 495.791,168.978 497.949,170.542 L503.756,174.715 C506.698,176.699 508.964,178.364 510.706,179.797 C512.375,181.158 513.831,182.493 514.862,183.569 C515.837,184.634 516.513,185.605 517.081,186.843 C517.336,187.267 517.445,187.743 517.445,188.305 C517.445,188.827 517.349,189.284 517.189,189.584 C516.808,190.282 516.205,190.852 515.412,191.32 C514.606,191.767 513.757,191.965 512.643,191.965 C511.868,191.965 511.127,191.864 510.62,191.703 C509.701,191.373 508.921,190.863 508.531,190.458 C507.773,189.472 507.686,188.827 507.686,188.429 C507.686,185.242 506.243,182.403 503.5,180.194 C498.252,175.994 489.737,175.979 484.438,180.224 C481.725,182.429 480.291,185.275 480.291,188.429 C480.291,192.018 481.123,195.475 482.808,198.802 C485.387,203.542 489.356,207.382 494.565,210.205 C498.759,212.519 503.322,213.948 508.167,214.499 L508.167,222.25 C508.167,224.324 510.104,226 512.5,226 C514.897,226 516.834,224.324 516.834,222.25 L516.834,214.488 C519.594,214.18 522.376,213.588 525.206,212.65 C530.952,210.543 535.658,207.389 539.202,203.268 C543.055,198.779 545,193.788 545,188.429 C544.996,185.039 544.151,181.57 542.565,178.289 C541.668,176.155 540.238,173.902 538.232,171.494 Z" id="Stroke-3"></path>
            </g>
        </g>
    </g>
</svg>