<?xml version="1.0" encoding="UTF-8" standalone="no"?>
<svg width="84px" height="84px" viewBox="0 0 84 84" version="1.1" xmlns="http://www.w3.org/2000/svg" xmlns:xlink="http://www.w3.org/1999/xlink">
    <!-- Generator: Sketch 3.8.3 (29802) - http://www.bohemiancoding.com/sketch -->
    <title>guitar-icon</title>
    <desc>Created with Sketch.</desc>
    <defs></defs>
    <g id="Page-1" stroke="none" stroke-width="1" fill="none" fill-rule="evenodd">
        <g id="Desktop-Copy" transform="translate(-261.000000, -568.000000)">
            <g id="guitar-icon" transform="translate(263.000000, 570.000000)">
                <path d="M49.6030284,24.0306226 C47.8715571,22.6612909 45.5600396,20.8639596 43.0505064,19.7232943 C41.5610544,19.0466285 40.1562758,18.6586289 38.7561643,18.5366291 C37.6460758,18.4406292 36.5413212,18.5239624 35.4739028,18.7846288 C32.4963323,19.5126279 30.3141584,21.0066261 28.9867193,23.2246235 C28.2513274,24.4539554 27.7639553,25.7672872 27.2919177,27.0379523 L27.283917,27.0599523 C27.174575,27.353952 27.0652329,27.6479516 26.953224,27.9392846 C25.8844722,30.7192813 24.6290389,32.0646131 22.6208789,32.5826124 C21.3967814,32.8986121 20.1113456,33.1546118 18.8639129,33.4026115 L18.4392124,33.487278 C15.8456725,34.0052774 13.3141375,34.5646101 10.8579418,35.7079421 C8.10705599,36.9886072 5.66819504,38.8272717 3.60936436,41.1726023 C1.38985421,43.7012659 0.181757968,46.6132625 0.0190783414,49.8272587 C-0.123599692,52.6412554 0.531119132,55.4579187 2.07990918,58.6919149 C3.5400255,61.7399112 5.61085714,64.6372412 8.59842847,67.8092374 C9.04179712,68.2799035 9.51050113,68.7625696 9.99187281,69.2439024 C11.08596,70.3385677 12.2567199,71.4392331 13.5701579,72.608565 C15.1376161,74.0038967 16.4897238,75.0512288 17.8258302,75.9058945 C21.0960907,77.9965587 23.9669861,79.2158906 26.8625501,79.7438899 C29.4654241,80.2178894 31.8482806,80.0352229 34.1471304,79.1852239 C36.6293282,78.2678917 38.778166,76.7458935 40.7163204,74.5325628 C42.2411086,72.7912315 44.1039236,70.3965677 44.9793267,67.3165713 C45.828061,64.3299082 46.4927806,61.3679117 47.1555001,58.3439153 C47.6662074,56.013918 48.6549528,54.6345863 50.3630889,53.8692539 C51.728531,53.2579213 53.1839803,52.6752553 54.8127767,52.089256 C60.1558691,50.1679249 62.1846973,44.531265 61.3806333,40.2026034 C60.9952693,38.1252725 60.1398678,36.1032749 58.690419,33.8399443 C57.9103568,32.6232791 57.034287,31.4339471 56.0768774,30.2792818 L49.6030284,24.0306226 L49.6030284,24.0306226 Z" id="Path" stroke="#20276E" stroke-width="4" fill="#FFFFFF"></path>
                <path d="M42.3571178,41.0919357 C41.9217498,40.3592699 41.3943744,39.6812707 40.7896596,39.0766047 C40.2189475,38.5066054 39.5922309,38.012606 38.9255111,37.6092732 L37.1187005,36.5152744 L44.0425854,29.590616 C49.5756929,24.0579559 57.4143173,16.2192985 61.1619492,12.4726362 C60.9605998,11.7759704 61.1126119,11.008638 61.5926502,10.4413053 L69.5386165,1.02331647 C70.0559911,0.4093172 70.8140515,0.0373176405 71.6174488,0.00265101487 C72.4215128,-0.0320156108 73.2089089,0.274650693 73.7782876,0.843983352 L79.1560493,6.22197698 C79.7240946,6.78997631 80.0314524,7.57597538 79.9974497,8.3786411 C79.9641137,9.18130681 79.5927508,9.93997258 78.9787019,10.459972 L69.5559512,18.4079626 C68.9819055,18.8892953 68.2138443,19.0406285 67.5217892,18.8392954 C62.754076,23.5886231 51.4325075,34.9266097 46.5361174,39.8299372 L43.4465379,42.9239335 L42.3571178,41.0919357 L42.3571178,41.0919357 Z" id="Path-Copy" stroke="#20276E" stroke-width="4" fill="#FFFFFF"></path>
                <path d="M14.1828733,56.8752503 C13.2774679,55.9699181 13.2781346,54.4965865 14.1828733,53.5919209 L15.7703331,52.0045894 C16.6757386,51.0992572 18.1485226,51.0992572 19.0539281,52.0045894 L27.9913067,60.9412455 C28.8967122,61.8465778 28.8967122,63.3192427 27.9913067,64.224575 L26.4038469,65.8119064 C25.4991082,66.7172387 24.0256575,66.7172387 23.120252,65.8119064 L14.1828733,56.8752503 L14.1828733,56.8752503 Z" id="Path" fill="#20276E"></path>
                <path d="M26.0471518,53.9805871 C24.5730344,52.5065888 23.6876305,50.5165912 23.4876146,48.2252606 C23.2875987,45.9365966 24.0883291,43.6019327 25.6857897,41.8199348 C27.245914,40.0792702 29.4060861,39.0406048 31.6182623,38.9659382 C33.8684416,38.6772719 36.2106282,39.4426043 38.0481079,41.0679357 C38.1901192,41.1932689 38.3294636,41.3246021 38.4634743,41.4586019 C40.0936042,43.0892667 41.0276786,45.2012642 41.0930171,47.4072616 C41.233695,52.1485893 37.4700618,56.3105843 32.8750291,56.4952508 C30.3661626,56.5959173 28.1353182,55.8485849 26.4231818,54.33392 L26.4091807,54.32192 C26.2851708,54.2119202 26.1638278,54.0972536 26.0471518,53.9805871 L26.0471518,53.9805871 Z" id="Path" fill="#20276E"></path>
            </g>
        </g>
    </g>
</svg>