<?xml version="1.0" encoding="UTF-8" standalone="no"?>
<svg width="85px" height="84px" viewBox="0 0 85 84" version="1.1" xmlns="http://www.w3.org/2000/svg" xmlns:xlink="http://www.w3.org/1999/xlink">
    <!-- Generator: Sketch 3.8.3 (29802) - http://www.bohemiancoding.com/sketch -->
    <title>gun-icon</title>
    <desc>Created with Sketch.</desc>
    <defs></defs>
    <g id="Page-1" stroke="none" stroke-width="1" fill="none" fill-rule="evenodd">
        <g id="Desktop-Copy" transform="translate(-256.000000, -684.000000)">
            <g id="gun-icon" transform="translate(258.000000, 686.000000)">
                <path d="M61.6291605,27.9208139 C60.7344963,27.0981496 60.4104972,26.6614842 59.9771651,26.4314848 C59.2011673,26.0201527 58.3591697,25.7334868 57.545172,25.3941544 C53.5371833,23.7241592 49.5471946,22.0088307 45.5012061,20.4368351 C44.9492076,20.2228357 44.1185433,20.727501 43.4165453,20.8988338 C43.7312111,21.423499 43.9238772,22.2314967 44.3792092,22.4281628 C49.2971953,24.5561568 54.2431813,26.6208176 59.2245006,28.594812 C59.7098326,28.7874782 60.478497,28.264813 61.6291605,27.9208139 L61.6291605,27.9208139 Z" id="Path" fill="#20276E"></path>
                <path d="M59.2731671,32.0708022 C59.3931668,31.7301365 59.5124998,31.3894708 59.6318328,31.0494718 C59.1865007,30.8628056 58.7418353,30.6754728 58.2958366,30.49014 C53.2898507,28.4141459 48.2918648,26.3174851 43.2598791,24.3054908 C42.8665469,24.148158 42.2345486,24.58949 41.7138834,24.7528229 C41.9405495,25.309488 42.0225492,26.2021521 42.4165481,26.3721517 C47.3898674,28.5248122 52.3958532,30.603473 57.4345057,32.5968007 C57.9045043,32.7828002 58.6538355,32.2628017 59.2731671,32.0708022 L59.2731671,32.0708022 Z" id="Path" fill="#20276E"></path>
                <path d="M52.8191854,43.6594361 C51.3311896,42.7767719 50.1865262,43.4861033 49.2551955,44.8860993 C48.6665304,45.7707635 48.4465311,46.6934275 49.4718615,47.3800923 C50.4298588,48.0220904 51.419856,49.0654208 52.5938527,48.070757 C51.9158546,47.482092 50.8031911,46.7394274 50.8891908,46.5540946 C51.3705228,45.5174309 52.1411873,44.6161001 52.8191854,43.6594361 L52.8191854,43.6594361 Z" id="Path" fill="#20276E"></path>
                <path d="M77.7304483,80 C72.279797,77.9580058 66.8404791,75.883345 61.3731612,73.8860173 C58.1131704,72.695354 57.7305048,71.5146907 59.3518336,68.3840329 C60.8104961,65.5680408 62.3098252,62.7060489 63.2178226,59.6907241 C64.16582,56.542733 62.4158249,53.1654092 59.8831654,51.835413 C58.7291687,51.2294147 57.8131712,51.2620813 56.7531742,52.1800787 C52.4531864,55.9060681 46.5265365,54.9014043 43.5512116,49.9814182 C42.3545483,48.0020905 42.6918807,45.9294297 43.4392119,43.8834355 C44.4872089,41.0141103 44.2785429,40.4794451 41.6632169,38.9621161 C40.1358879,38.0767852 38.5612257,37.2367876 37.1658963,36.1687906 C34.6952366,34.2774626 34.0539051,31.796803 35.0619023,28.9194778 C35.9598997,26.3581517 35.5832341,25.2854881 33.0325747,24.1308247 C30.9339139,23.1808274 28.7359201,22.4508294 26.5745929,21.6434984 C18.754615,18.72284 10.9426371,15.7808483 3.09932598,12.9241897 C1.79932966,12.450191 0.801332481,11.885526 0.5,10.46353 L0.5,6.78220706 C1.41066409,4.71887956 2.32066152,2.65621873 3.29799209,0.440891663 C5.18265342,1.39488897 6.54398291,1.56955514 8.23797812,0.428225032 C10.0226397,-0.774438233 12.7732986,0.722224201 13.1366309,2.85488484 C13.3606303,4.16954778 14.0339617,4.65354642 15.1306253,5.05621194 C22.2679384,7.6768712 29.3965849,10.3235304 36.5138982,12.9988561 C38.2965598,13.6688543 39.9872217,14.2375193 42.0118826,13.9401868 C43.4058787,13.7355207 45.0125408,14.1448529 46.3705369,14.6748514 C52.0631875,16.8961785 57.7051716,19.2481718 63.3444889,21.6034985 C64.0611536,21.902831 64.8338181,22.3734963 65.2698168,22.9868279 C67.2891445,25.8254865 67.7878097,26.019486 70.9784674,24.7161563 C74.2271248,23.3894934 77.7804481,25.2128216 78.5297793,28.1541466 C76.3831187,29.1194772 74.3264579,30.0421413 72.271797,30.969472 C71.7164653,31.220138 71.1864668,31.6394701 70.6104684,31.7128032 C68.7958069,31.9441359 67.7031433,32.7654669 67.4944772,34.6941281 C67.3991441,35.5741256 66.6064797,36.5587895 66.8384791,37.2621209 C67.69581,39.8581135 68.4984744,42.4941061 71.5991323,43.6247695 C72.8884619,44.0947682 73.9237924,45.4787643 74.8784563,46.6127611 C78.174447,50.5254167 79.4031102,55.2387367 79.7324426,60.212056 C80.0784416,65.4440412 80.3431075,70.6840263 80.4977738,75.9246782 C80.5377736,77.2746744 80.0297751,78.6413372 79.7737758,80 L77.7304483,80 L77.7304483,80 Z" id="Path" stroke="#20276E" stroke-width="4" stroke-linecap="round" stroke-linejoin="round"></path>
                <path d="M57.4078391,35.3501263 C57.0725067,35.0681271 56.7365076,34.6261283 56.2938422,34.4394622 C51.4185227,32.381468 46.5392031,30.3314738 41.6185504,28.386146 C41.157885,28.2034798 40.4112205,28.7474783 39.7972222,28.954811 C40.1132213,29.4768095 40.3065541,30.2354741 40.7692195,30.4774734 C42.1472156,31.1968047 43.631878,31.7101366 45.0725406,32.3094682 C48.3931979,33.690131 51.7091885,35.0794604 55.0331791,36.4521232 C56.0538429,36.874122 57.0225068,37.0741214 57.4078391,35.3501263 L57.4078391,35.3501263 Z" id="Path" fill="#20276E"></path>
            </g>
        </g>
    </g>
</svg>