<?xml version="1.0" encoding="UTF-8" standalone="no"?>
<svg width="84px" height="73px" viewBox="0 0 84 73" version="1.1" xmlns="http://www.w3.org/2000/svg" xmlns:xlink="http://www.w3.org/1999/xlink">
    <!-- Generator: Sketch 3.8.3 (29802) - http://www.bohemiancoding.com/sketch -->
    <title>jewel-icon</title>
    <desc>Created with Sketch.</desc>
    <defs></defs>
    <g id="Page-1" stroke="none" stroke-width="1" fill="none" fill-rule="evenodd" stroke-linecap="round" stroke-linejoin="round">
        <g id="Desktop-Copy" transform="translate(-271.000000, -316.000000)" stroke="#20276E" stroke-width="4">
            <path d="M313,341.584571 L298.093143,341.584571 L313,386.571429 L327.906857,341.584571 L313,341.584571 Z M313,318 L291.999429,318 L298.093143,341.584571 L313,341.584571 L327.906857,341.584571 L334.000571,318 L313,318 Z M353,341.584571 L327.906857,341.584571 L334.000571,318 L353,341.584571 Z M313,386.571429 L327.906857,341.584571 L353,341.584571 L313,386.571429 Z M291.999429,318 L298.093143,341.584571 L273,341.584571 L291.999429,318 Z M273,341.584571 L298.093143,341.584571 L313,386.571429 L273,341.584571 Z" id="jewel-icon"></path>
        </g>
    </g>
</svg>