<svg width="304px" height="124px" viewBox="0 0 304 124" version="1.1" xmlns="http://www.w3.org/2000/svg" xmlns:xlink="http://www.w3.org/1999/xlink"><g id="Page-1" stroke="none" stroke-width="1" fill="none" fill-rule="evenodd"><g id="Desktop" transform="translate(-360.000000, -19.000000)"><g id="nav-bar"><g id="Logo" transform="translate(362.000000, 20.000000)"><path d="M44.904375,34.4468413 L59.9460417,18.5484592 L51.029375,2.99329738 L55.6710417,2.99329738 L59.7314583,10.1156394 C60.8064583,11.9898305 61.4210417,13.0839753 61.579375,13.4001541 C61.9522917,14.1011556 62.360625,14.9373652 62.804375,15.9087827 C63.8647917,14.4797381 65.504375,12.5972265 67.7252083,10.2674884 L74.6439583,2.99329738 L80.1460417,2.99329738 L64.910625,19.2348998 L73.548125,34.4468413 L68.9710417,34.4468413 L63.8564583,25.2422958 C63.3564583,24.3416025 62.7752083,23.1829738 62.116875,21.7664099 C61.3439583,22.8106317 60.398125,23.9193374 59.279375,25.092527 L50.491875,34.4468413 L44.904375,34.4468413 Z" id="Fill-2" fill="#FFCC0C"></path><path d="M101.909792,18.1193297 L108.851458,18.1193297 C111.543125,18.1193297 113.520208,17.8301926 114.780625,17.2498382 C116.041042,16.6715639 117.051458,15.7875116 117.811875,14.5997612 C118.570208,13.4140909 118.949375,12.1556163 118.949375,10.8243374 C118.949375,9.79467643 118.749375,8.95430663 118.349375,8.30322804 C117.947292,7.65214946 117.380625,7.17372111 116.651458,6.86586287 C115.920208,6.55800462 114.516042,6.4040755 112.438958,6.4040755 L104.359792,6.4040755 L101.909792,18.1193297 Z M94.280625,34.4462173 L100.878542,2.99267334 L114.028542,2.99267334 C116.307708,2.99267334 118.016042,3.25476888 119.153542,3.77687982 C120.293125,4.29899076 121.234792,5.19344376 121.980625,6.45815871 C122.724375,7.72495378 123.097292,9.14359784 123.097292,10.7182512 C123.097292,12.0183282 122.832708,13.3412866 122.301458,14.6871263 C121.772292,16.030886 121.101458,17.1395917 120.293125,18.0111633 C119.482708,18.8848151 118.663958,19.5421341 117.832708,19.9852003 C117.001458,20.4303467 116.113958,20.7590062 115.168125,20.9732589 C113.147292,21.4454468 111.107708,21.6805008 109.043125,21.6805008 L101.157708,21.6805008 L98.493125,34.4462173 L94.280625,34.4462173 Z" id="Fill-4" fill="#FFCC0C"></path><path d="M146.630625,17.0680354 L152.453542,17.0680354 C155.147292,17.0680354 156.901458,17.0326733 157.718125,16.959869 C159.309792,16.8038598 160.611875,16.4460786 161.628542,15.8886055 C162.647292,15.3311325 163.434792,14.580208 163.993125,13.635832 C164.551458,12.6914561 164.830625,11.6763559 164.830625,10.5884515 C164.830625,9.67319723 164.624375,8.87651002 164.207708,8.19630971 C163.793125,7.5161094 163.247292,7.05640216 162.574375,6.81302773 C161.901458,6.56965331 160.755625,6.44692604 159.136875,6.44692604 L148.866042,6.44692604 L146.630625,17.0680354 Z M138.786875,34.4474653 L145.384792,2.99392142 L158.599375,2.99392142 C161.207708,2.99392142 163.184792,3.21233436 164.530625,3.64708012 C165.876458,4.08390601 166.932708,4.90347458 167.699375,6.1037057 C168.466042,7.30601695 168.849375,8.82242681 168.849375,10.6529353 C168.849375,13.213567 168.011875,15.3373729 166.334792,17.0243529 C164.659792,18.7134129 161.951458,19.8075578 158.211875,20.3067874 C159.359792,21.1513174 160.226458,21.9812866 160.813958,22.7966949 C162.130625,24.6417643 163.191042,26.5513174 163.993125,28.5253544 L166.399375,34.4474653 L161.693125,34.4474653 L159.436875,28.5898382 C158.620208,26.4722727 157.688958,24.6417643 156.645208,23.0962327 C155.928542,22.0249692 155.197292,21.3198074 154.451458,20.9828274 C153.707708,20.6479276 152.497292,20.4794376 150.820208,20.4794376 L145.922292,20.4794376 L142.999375,34.4474653 L138.786875,34.4474653 Z" id="Fill-6" fill="#FFCC0C"></path><polygon id="Fill-8" fill="#FFCC0C" points="185.379375 34.4468413 191.977292 2.99329738 214.710625 2.99329738 213.958542 6.57734977 195.435625 6.57734977 193.373125 16.3601695 211.423125 16.3601695 210.671042 19.9421418 192.621042 19.9421418 190.343958 30.8856703 210.177292 30.8856703 209.425208 34.4468413"></polygon><path d="M243.121667,20.5008629 L240.73625,31.893698 C242.669583,31.9644222 244.296667,31.3903082 245.613333,30.1671957 C246.932083,28.9440832 247.590417,27.4879969 247.590417,25.8010169 C247.590417,24.6839908 247.290417,23.7188136 246.688333,22.9034052 C246.08625,22.0879969 244.89875,21.2871495 243.121667,20.5008629 L243.121667,20.5008629 Z M241.9175,15.9745146 L244.088333,5.67582435 C242.98625,5.63214176 241.96125,5.82975347 241.015417,6.26449923 C240.069583,6.70132512 239.340417,7.33368259 238.82375,8.16365177 C238.309167,8.99362096 238.050833,9.90263482 238.050833,10.8886133 C238.050833,11.9765177 238.319583,12.9125732 238.857083,13.6988598 C239.3925,14.4872265 240.413333,15.2443914 241.9175,15.9745146 L241.9175,15.9745146 Z M238.007083,34.7247458 C235.915417,34.2962404 234.175833,33.2374576 232.78625,31.5504777 C231.396667,29.8634977 230.63625,27.7958552 230.507083,25.3496302 L234.419583,25.1145763 C234.54875,26.830678 234.994583,28.2243606 235.76125,29.2977042 C236.527917,30.3710478 237.49875,31.1136518 238.67375,31.5296764 L241.165417,19.6646533 C239.475833,18.93453 238.250833,18.2626502 237.4925,17.6469337 C236.432083,16.8024037 235.621667,15.8101849 235.063333,14.664037 C234.505,13.5199692 234.225833,12.3488598 234.225833,11.1465485 C234.225833,8.88545455 235.14875,6.88853621 236.996667,5.14955316 C238.844583,3.41265023 241.138333,2.54315871 243.87375,2.54315871 C243.959167,2.54315871 244.246667,2.54939908 244.734167,2.56395994 L245.077917,0.891540832 L247.225833,0.891540832 L246.8175,2.84269646 C248.765417,3.3294453 250.29875,4.21349769 251.415417,5.4927735 C252.534167,6.77204931 253.213333,8.47151002 253.457083,10.5890755 L249.740417,10.782527 C249.540417,9.50949153 249.159167,8.49231125 248.600833,7.73514638 C248.0425,6.97590139 247.225833,6.41218798 246.150833,6.03984592 L243.894583,16.8315254 C246.788333,18.0192758 248.775833,19.3131125 249.859167,20.7151156 C250.940417,22.1171186 251.48,23.6772111 251.48,25.3933128 C251.48,27.0241294 250.996667,28.6528659 250.03,30.2836826 C249.063333,31.9144992 247.784167,33.10849 246.194583,33.867735 C244.605,34.6248998 242.771667,35.0055624 240.6925,35.0055624 C240.550833,35.0055624 240.34875,34.9972419 240.0925,34.982681 L239.3175,38.6520185 L237.190417,38.6520185 L238.007083,34.7247458 Z" id="Fill-10" fill="#FFCC0C"></path><path d="M285.876875,20.5008629 L283.491458,31.893698 C285.424792,31.9644222 287.051875,31.3903082 288.368542,30.1671957 C289.687292,28.9440832 290.345625,27.4879969 290.345625,25.8010169 C290.345625,24.6839908 290.045625,23.7188136 289.443542,22.9034052 C288.841458,22.0879969 287.653958,21.2871495 285.876875,20.5008629 L285.876875,20.5008629 Z M284.672708,15.9745146 L286.843542,5.67582435 C285.741458,5.63214176 284.716458,5.82975347 283.770625,6.26449923 C282.824792,6.70132512 282.095625,7.33368259 281.578958,8.16365177 C281.064375,8.99362096 280.806042,9.90263482 280.806042,10.8886133 C280.806042,11.9765177 281.074792,12.9125732 281.612292,13.6988598 C282.147708,14.4872265 283.168542,15.2443914 284.672708,15.9745146 L284.672708,15.9745146 Z M280.762292,34.7247458 C278.670625,34.2962404 276.931042,33.2374576 275.541458,31.5504777 C274.151875,29.8634977 273.391458,27.7958552 273.262292,25.3496302 L277.174792,25.1145763 C277.303958,26.830678 277.749792,28.2243606 278.516458,29.2977042 C279.283125,30.3710478 280.253958,31.1136518 281.428958,31.5296764 L283.920625,19.6646533 C282.231042,18.93453 281.006042,18.2626502 280.247708,17.6469337 C279.187292,16.8024037 278.376875,15.8101849 277.818542,14.664037 C277.260208,13.5199692 276.981042,12.3488598 276.981042,11.1465485 C276.981042,8.88545455 277.903958,6.88853621 279.751875,5.14955316 C281.599792,3.41265023 283.893542,2.54315871 286.628958,2.54315871 C286.714375,2.54315871 287.001875,2.54939908 287.489375,2.56395994 L287.833125,0.891540832 L289.981042,0.891540832 L289.572708,2.84269646 C291.520625,3.3294453 293.053958,4.21349769 294.170625,5.4927735 C295.289375,6.77204931 295.968542,8.47151002 296.212292,10.5890755 L292.495625,10.782527 C292.295625,9.50949153 291.914375,8.49231125 291.356042,7.73514638 C290.797708,6.97590139 289.981042,6.41218798 288.906042,6.03984592 L286.649792,16.8315254 C289.543542,18.0192758 291.531042,19.3131125 292.614375,20.7151156 C293.695625,22.1171186 294.235208,23.6772111 294.235208,25.3933128 C294.235208,27.0241294 293.751875,28.6528659 292.785208,30.2836826 C291.818542,31.9144992 290.539375,33.10849 288.949792,33.867735 C287.360208,34.6248998 285.526875,35.0055624 283.447708,35.0055624 C283.306042,35.0055624 283.103958,34.9972419 282.847708,34.982681 L282.072708,38.6520185 L279.945625,38.6520185 L280.762292,34.7247458 Z" id="Fill-12" fill="#FFCC0C"></path><polygon id="Stroke-14" stroke="#293980" stroke-width="3" points="6.03270833 34.4468413 12.630625 2.99329738 35.3639583 2.99329738 34.611875 6.57734977 16.0889583 6.57734977 14.0264583 16.3601695 32.0764583 16.3601695 31.324375 19.9421418 13.274375 19.9421418 10.9972917 30.8856703 30.830625 30.8856703 30.0785417 34.4468413"></polygon><path d="M44.904375,34.4468413 L59.9460417,18.5484592 L51.029375,2.99329738 L55.6710417,2.99329738 L59.7314583,10.1156394 C60.8064583,11.9898305 61.4210417,13.0839753 61.579375,13.4001541 C61.9522917,14.1011556 62.360625,14.9373652 62.804375,15.9087827 C63.8647917,14.4797381 65.504375,12.5972265 67.7252083,10.2674884 L74.6439583,2.99329738 L80.1460417,2.99329738 L64.910625,19.2348998 L73.548125,34.4468413 L68.9710417,34.4468413 L63.8564583,25.2422958 C63.3564583,24.3416025 62.7752083,23.1829738 62.116875,21.7664099 C61.3439583,22.8106317 60.398125,23.9193374 59.279375,25.092527 L50.491875,34.4468413 L44.904375,34.4468413 L44.904375,34.4468413 Z" id="Stroke-16" stroke="#293980" stroke-width="3"></path><path d="M101.909792,18.1193297 L108.851458,18.1193297 C111.543125,18.1193297 113.520208,17.8301926 114.780625,17.2498382 C116.041042,16.6715639 117.051458,15.7875116 117.811875,14.5997612 C118.570208,13.4140909 118.949375,12.1556163 118.949375,10.8243374 C118.949375,9.79467643 118.749375,8.95430663 118.349375,8.30322804 C117.947292,7.65214946 117.380625,7.17372111 116.651458,6.86586287 C115.920208,6.55800462 114.516042,6.4040755 112.438958,6.4040755 L104.359792,6.4040755 L101.909792,18.1193297 L101.909792,18.1193297 Z M94.280625,34.4462173 L100.878542,2.99267334 L114.028542,2.99267334 C116.307708,2.99267334 118.016042,3.25476888 119.153542,3.77687982 C120.293125,4.29899076 121.234792,5.19344376 121.980625,6.45815871 C122.724375,7.72495378 123.097292,9.14359784 123.097292,10.7182512 C123.097292,12.0183282 122.832708,13.3412866 122.301458,14.6871263 C121.772292,16.030886 121.101458,17.1395917 120.293125,18.0111633 C119.482708,18.8848151 118.663958,19.5421341 117.832708,19.9852003 C117.001458,20.4303467 116.113958,20.7590062 115.168125,20.9732589 C113.147292,21.4454468 111.107708,21.6805008 109.043125,21.6805008 L101.157708,21.6805008 L98.493125,34.4462173 L94.280625,34.4462173 L94.280625,34.4462173 Z" id="Stroke-18" stroke="#293980" stroke-width="3"></path><path d="M146.630625,17.0680354 L152.453542,17.0680354 C155.147292,17.0680354 156.901458,17.0326733 157.718125,16.959869 C159.309792,16.8038598 160.611875,16.4460786 161.628542,15.8886055 C162.647292,15.3311325 163.434792,14.580208 163.993125,13.635832 C164.551458,12.6914561 164.830625,11.6763559 164.830625,10.5884515 C164.830625,9.67319723 164.624375,8.87651002 164.207708,8.19630971 C163.793125,7.5161094 163.247292,7.05640216 162.574375,6.81302773 C161.901458,6.56965331 160.755625,6.44692604 159.136875,6.44692604 L148.866042,6.44692604 L146.630625,17.0680354 L146.630625,17.0680354 Z M138.786875,34.4474653 L145.384792,2.99392142 L158.599375,2.99392142 C161.207708,2.99392142 163.184792,3.21233436 164.530625,3.64708012 C165.876458,4.08390601 166.932708,4.90347458 167.699375,6.1037057 C168.466042,7.30601695 168.849375,8.82242681 168.849375,10.6529353 C168.849375,13.213567 168.011875,15.3373729 166.334792,17.0243529 C164.659792,18.7134129 161.951458,19.8075578 158.211875,20.3067874 C159.359792,21.1513174 160.226458,21.9812866 160.813958,22.7966949 C162.130625,24.6417643 163.191042,26.5513174 163.993125,28.5253544 L166.399375,34.4474653 L161.693125,34.4474653 L159.436875,28.5898382 C158.620208,26.4722727 157.688958,24.6417643 156.645208,23.0962327 C155.928542,22.0249692 155.197292,21.3198074 154.451458,20.9828274 C153.707708,20.6479276 152.497292,20.4794376 150.820208,20.4794376 L145.922292,20.4794376 L142.999375,34.4474653 L138.786875,34.4474653 L138.786875,34.4474653 Z" id="Stroke-20" stroke="#293980" stroke-width="3"></path><polygon id="Stroke-22" stroke="#293980" stroke-width="3" points="185.379375 34.4468413 191.977292 2.99329738 214.710625 2.99329738 213.958542 6.57734977 195.435625 6.57734977 193.373125 16.3601695 211.423125 16.3601695 210.671042 19.9421418 192.621042 19.9421418 190.343958 30.8856703 210.177292 30.8856703 209.425208 34.4468413"></polygon>
<path d="M243.121667,20.5008629 L240.73625,31.893698 C242.669583,31.9644222 244.296667,31.3903082 245.613333,30.1671957 C246.932083,28.9440832 247.590417,27.4879969 247.590417,25.8010169 C247.590417,24.6839908 247.290417,23.7188136 246.688333,22.9034052 C246.08625,22.0879969 244.89875,21.2871495 243.121667,20.5008629 L243.121667,20.5008629 Z M241.9175,15.9745146 L244.088333,5.67582435 C242.98625,5.63214176 241.96125,5.82975347 241.015417,6.26449923 C240.069583,6.70132512 239.340417,7.33368259 238.82375,8.16365177 C238.309167,8.99362096 238.050833,9.90263482 238.050833,10.8886133 C238.050833,11.9765177 238.319583,12.9125732 238.857083,13.6988598 C239.3925,14.4872265 240.413333,15.2443914 241.9175,15.9745146 L241.9175,15.9745146 Z M238.007083,34.7247458 C235.915417,34.2962404 234.175833,33.2374576 232.78625,31.5504777 C231.396667,29.8634977 230.63625,27.7958552 230.507083,25.3496302 L234.419583,25.1145763 C234.54875,26.830678 234.994583,28.2243606 235.76125,29.2977042 C236.527917,30.3710478 237.49875,31.1136518 238.67375,31.5296764 L241.165417,19.6646533 C239.475833,18.93453 238.250833,18.2626502 237.4925,17.6469337 C236.432083,16.8024037 235.621667,15.8101849 235.063333,14.664037 C234.505,13.5199692 234.225833,12.3488598 234.225833,11.1465485 C234.225833,8.88545455 235.14875,6.88853621 236.996667,5.14955316 C238.844583,3.41265023 241.138333,2.54315871 243.87375,2.54315871 C243.959167,2.54315871 244.246667,2.54939908 244.734167,2.56395994 L245.077917,0.891540832 L247.225833,0.891540832 L246.8175,2.84269646 C248.765417,3.3294453 250.29875,4.21349769 251.415417,5.4927735 C252.534167,6.77204931 253.213333,8.47151002 253.457083,10.5890755 L249.740417,10.782527 C249.540417,9.50949153 249.159167,8.49231125 248.600833,7.73514638 C248.0425,6.97590139 247.225833,6.41218798 246.150833,6.03984592 L243.894583,16.8315254 C246.788333,18.0192758 248.775833,19.3131125 249.859167,20.7151156 C250.940417,22.1171186 251.48,23.6772111 251.48,25.3933128 C251.48,27.0241294 250.996667,28.6528659 250.03,30.2836826 C249.063333,31.9144992 247.784167,33.10849 246.194583,33.867735 C244.605,34.6248998 242.771667,35.0055624 240.6925,35.0055624 C240.550833,35.0055624 240.34875,34.9972419 240.0925,34.982681 L239.3175,38.6520185 L237.190417,38.6520185 L238.007083,34.7247458 L238.007083,34.7247458 Z" id="Stroke-24" stroke="#293980" stroke-width="3"></path><path d="M285.876875,20.5008629 L283.491458,31.893698 C285.424792,31.9644222 287.051875,31.3903082 288.368542,30.1671957 C289.687292,28.9440832 290.345625,27.4879969 290.345625,25.8010169 C290.345625,24.6839908 290.045625,23.7188136 289.443542,22.9034052 C288.841458,22.0879969 287.653958,21.2871495 285.876875,20.5008629 L285.876875,20.5008629 Z M284.672708,15.9745146 L286.843542,5.67582435 C285.741458,5.63214176 284.716458,5.82975347 283.770625,6.26449923 C282.824792,6.70132512 282.095625,7.33368259 281.578958,8.16365177 C281.064375,8.99362096 280.806042,9.90263482 280.806042,10.8886133 C280.806042,11.9765177 281.074792,12.9125732 281.612292,13.6988598 C282.147708,14.4872265 283.168542,15.2443914 284.672708,15.9745146 L284.672708,15.9745146 Z M280.762292,34.7247458 C278.670625,34.2962404 276.931042,33.2374576 275.541458,31.5504777 C274.151875,29.8634977 273.391458,27.7958552 273.262292,25.3496302 L277.174792,25.1145763 C277.303958,26.830678 277.749792,28.2243606 278.516458,29.2977042 C279.283125,30.3710478 280.253958,31.1136518 281.428958,31.5296764 L283.920625,19.6646533 C282.231042,18.93453 281.006042,18.2626502 280.247708,17.6469337 C279.187292,16.8024037 278.376875,15.8101849 277.818542,14.664037 C277.260208,13.5199692 276.981042,12.3488598 276.981042,11.1465485 C276.981042,8.88545455 277.903958,6.88853621 279.751875,5.14955316 C281.599792,3.41265023 283.893542,2.54315871 286.628958,2.54315871 C286.714375,2.54315871 287.001875,2.54939908 287.489375,2.56395994 L287.833125,0.891540832 L289.981042,0.891540832 L289.572708,2.84269646 C291.520625,3.3294453 293.053958,4.21349769 294.170625,5.4927735 C295.289375,6.77204931 295.968542,8.47151002 296.212292,10.5890755 L292.495625,10.782527 C292.295625,9.50949153 291.914375,8.49231125 291.356042,7.73514638 C290.797708,6.97590139 289.981042,6.41218798 288.906042,6.03984592 L286.649792,16.8315254 C289.543542,18.0192758 291.531042,19.3131125 292.614375,20.7151156 C293.695625,22.1171186 294.235208,23.6772111 294.235208,25.3933128 C294.235208,27.0241294 293.751875,28.6528659 292.785208,30.2836826 C291.818542,31.9144992 290.539375,33.10849 288.949792,33.867735 C287.360208,34.6248998 285.526875,35.0055624 283.447708,35.0055624 C283.306042,35.0055624 283.103958,34.9972419 282.847708,34.982681 L282.072708,38.6520185 L279.945625,38.6520185 L280.762292,34.7247458 L280.762292,34.7247458 Z" id="Stroke-26" stroke="#293980" stroke-width="3"></path><polygon id="Fill-28" fill="#FFCC0C" points="6.03270833 34.4468413 12.630625 2.99329738 35.3639583 2.99329738 34.611875 6.57734977 16.0889583 6.57734977 14.0264583 16.3601695 32.0764583 16.3601695 31.324375 19.9421418 13.274375 19.9421418 10.9972917 30.8856703 30.830625 30.8856703 30.0785417 34.4468413"></polygon><path d="M44.904375,34.4468413 L59.9460417,18.5484592 L51.029375,2.99329738 L55.6710417,2.99329738 L59.7314583,10.1156394 C60.8064583,11.9898305 61.4210417,13.0839753 61.579375,13.4001541 C61.9522917,14.1011556 62.360625,14.9373652 62.804375,15.9087827 C63.8647917,14.4797381 65.504375,12.5972265 67.7252083,10.2674884 L74.6439583,2.99329738 L80.1460417,2.99329738 L64.910625,19.2348998 L73.548125,34.4468413 L68.9710417,34.4468413 L63.8564583,25.2422958 C63.3564583,24.3416025 62.7752083,23.1829738 62.116875,21.7664099 C61.3439583,22.8106317 60.398125,23.9193374 59.279375,25.092527 L50.491875,34.4468413 L44.904375,34.4468413 Z" id="Fill-30" fill="#FFCC0C"></path><path d="M101.909792,18.1193297 L108.851458,18.1193297 C111.543125,18.1193297 113.520208,17.8301926 114.780625,17.2498382 C116.041042,16.6715639 117.051458,15.7875116 117.811875,14.5997612 C118.570208,13.4140909 118.949375,12.1556163 118.949375,10.8243374 C118.949375,9.79467643 118.749375,8.95430663 118.349375,8.30322804 C117.947292,7.65214946 117.380625,7.17372111 116.651458,6.86586287 C115.920208,6.55800462 114.516042,6.4040755 112.438958,6.4040755 L104.359792,6.4040755 L101.909792,18.1193297 Z M94.280625,34.4462173 L100.878542,2.99267334 L114.028542,2.99267334 C116.307708,2.99267334 118.016042,3.25476888 119.153542,3.77687982 C120.293125,4.29899076 121.234792,5.19344376 121.980625,6.45815871 C122.724375,7.72495378 123.097292,9.14359784 123.097292,10.7182512 C123.097292,12.0183282 122.832708,13.3412866 122.301458,14.6871263 C121.772292,16.030886 121.101458,17.1395917 120.293125,18.0111633 C119.482708,18.8848151 118.663958,19.5421341 117.832708,19.9852003 C117.001458,20.4303467 116.113958,20.7590062 115.168125,20.9732589 C113.147292,21.4454468 111.107708,21.6805008 109.043125,21.6805008 L101.157708,21.6805008 L98.493125,34.4462173 L94.280625,34.4462173 Z" id="Fill-32" fill="#FFCC0C"></path>
<path d="M146.630625,17.0680354 L152.453542,17.0680354 C155.147292,17.0680354 156.901458,17.0326733 157.718125,16.959869 C159.309792,16.8038598 160.611875,16.4460786 161.628542,15.8886055 C162.647292,15.3311325 163.434792,14.580208 163.993125,13.635832 C164.551458,12.6914561 164.830625,11.6763559 164.830625,10.5884515 C164.830625,9.67319723 164.624375,8.87651002 164.207708,8.19630971 C163.793125,7.5161094 163.247292,7.05640216 162.574375,6.81302773 C161.901458,6.56965331 160.755625,6.44692604 159.136875,6.44692604 L148.866042,6.44692604 L146.630625,17.0680354 Z M138.786875,34.4474653 L145.384792,2.99392142 L158.599375,2.99392142 C161.207708,2.99392142 163.184792,3.21233436 164.530625,3.64708012 C165.876458,4.08390601 166.932708,4.90347458 167.699375,6.1037057 C168.466042,7.30601695 168.849375,8.82242681 168.849375,10.6529353 C168.849375,13.213567 168.011875,15.3373729 166.334792,17.0243529 C164.659792,18.7134129 161.951458,19.8075578 158.211875,20.3067874 C159.359792,21.1513174 160.226458,21.9812866 160.813958,22.7966949 C162.130625,24.6417643 163.191042,26.5513174 163.993125,28.5253544 L166.399375,34.4474653 L161.693125,34.4474653 L159.436875,28.5898382 C158.620208,26.4722727 157.688958,24.6417643 156.645208,23.0962327 C155.928542,22.0249692 155.197292,21.3198074 154.451458,20.9828274 C153.707708,20.6479276 152.497292,20.4794376 150.820208,20.4794376 L145.922292,20.4794376 L142.999375,34.4474653 L138.786875,34.4474653 Z" id="Fill-34" fill="#FFCC0C"></path><polygon id="Fill-36" fill="#FFCC0C" points="185.379375 34.4468413 191.977292 2.99329738 214.710625 2.99329738 213.958542 6.57734977 195.435625 6.57734977 193.373125 16.3601695 211.423125 16.3601695 210.671042 19.9421418 192.621042 19.9421418 190.343958 30.8856703 210.177292 30.8856703 209.425208 34.4468413"></polygon><path d="M243.121667,20.5008629 L240.73625,31.893698 C242.669583,31.9644222 244.296667,31.3903082 245.613333,30.1671957 C246.932083,28.9440832 247.590417,27.4879969 247.590417,25.8010169 C247.590417,24.6839908 247.290417,23.7188136 246.688333,22.9034052 C246.08625,22.0879969 244.89875,21.2871495 243.121667,20.5008629 L243.121667,20.5008629 Z M241.9175,15.9745146 L244.088333,5.67582435 C242.98625,5.63214176 241.96125,5.82975347 241.015417,6.26449923 C240.069583,6.70132512 239.340417,7.33368259 238.82375,8.16365177 C238.309167,8.99362096 238.050833,9.90263482 238.050833,10.8886133 C238.050833,11.9765177 238.319583,12.9125732 238.857083,13.6988598 C239.3925,14.4872265 240.413333,15.2443914 241.9175,15.9745146 L241.9175,15.9745146 Z M238.007083,34.7247458 C235.915417,34.2962404 234.175833,33.2374576 232.78625,31.5504777 C231.396667,29.8634977 230.63625,27.7958552 230.507083,25.3496302 L234.419583,25.1145763 C234.54875,26.830678 234.994583,28.2243606 235.76125,29.2977042 C236.527917,30.3710478 237.49875,31.1136518 238.67375,31.5296764 L241.165417,19.6646533 C239.475833,18.93453 238.250833,18.2626502 237.4925,17.6469337 C236.432083,16.8024037 235.621667,15.8101849 235.063333,14.664037 C234.505,13.5199692 234.225833,12.3488598 234.225833,11.1465485 C234.225833,8.88545455 235.14875,6.88853621 236.996667,5.14955316 C238.844583,3.41265023 241.138333,2.54315871 243.87375,2.54315871 C243.959167,2.54315871 244.246667,2.54939908 244.734167,2.56395994 L245.077917,0.891540832 L247.225833,0.891540832 L246.8175,2.84269646 C248.765417,3.3294453 250.29875,4.21349769 251.415417,5.4927735 C252.534167,6.77204931 253.213333,8.47151002 253.457083,10.5890755 L249.740417,10.782527 C249.540417,9.50949153 249.159167,8.49231125 248.600833,7.73514638 C248.0425,6.97590139 247.225833,6.41218798 246.150833,6.03984592 L243.894583,16.8315254 C246.788333,18.0192758 248.775833,19.3131125 249.859167,20.7151156 C250.940417,22.1171186 251.48,23.6772111 251.48,25.3933128 C251.48,27.0241294 250.996667,28.6528659 250.03,30.2836826 C249.063333,31.9144992 247.784167,33.10849 246.194583,33.867735 C244.605,34.6248998 242.771667,35.0055624 240.6925,35.0055624 C240.550833,35.0055624 240.34875,34.9972419 240.0925,34.982681 L239.3175,38.6520185 L237.190417,38.6520185 L238.007083,34.7247458 Z" id="Fill-38" fill="#FFCC0C"></path><path d="M285.876875,20.5008629 L283.491458,31.893698 C285.424792,31.9644222 287.051875,31.3903082 288.368542,30.1671957 C289.687292,28.9440832 290.345625,27.4879969 290.345625,25.8010169 C290.345625,24.6839908 290.045625,23.7188136 289.443542,22.9034052 C288.841458,22.0879969 287.653958,21.2871495 285.876875,20.5008629 L285.876875,20.5008629 Z M284.672708,15.9745146 L286.843542,5.67582435 C285.741458,5.63214176 284.716458,5.82975347 283.770625,6.26449923 C282.824792,6.70132512 282.095625,7.33368259 281.578958,8.16365177 C281.064375,8.99362096 280.806042,9.90263482 280.806042,10.8886133 C280.806042,11.9765177 281.074792,12.9125732 281.612292,13.6988598 C282.147708,14.4872265 283.168542,15.2443914 284.672708,15.9745146 L284.672708,15.9745146 Z M280.762292,34.7247458 C278.670625,34.2962404 276.931042,33.2374576 275.541458,31.5504777 C274.151875,29.8634977 273.391458,27.7958552 273.262292,25.3496302 L277.174792,25.1145763 C277.303958,26.830678 277.749792,28.2243606 278.516458,29.2977042 C279.283125,30.3710478 280.253958,31.1136518 281.428958,31.5296764 L283.920625,19.6646533 C282.231042,18.93453 281.006042,18.2626502 280.247708,17.6469337 C279.187292,16.8024037 278.376875,15.8101849 277.818542,14.664037 C277.260208,13.5199692 276.981042,12.3488598 276.981042,11.1465485 C276.981042,8.88545455 277.903958,6.88853621 279.751875,5.14955316 C281.599792,3.41265023 283.893542,2.54315871 286.628958,2.54315871 C286.714375,2.54315871 287.001875,2.54939908 287.489375,2.56395994 L287.833125,0.891540832 L289.981042,0.891540832 L289.572708,2.84269646 C291.520625,3.3294453 293.053958,4.21349769 294.170625,5.4927735 C295.289375,6.77204931 295.968542,8.47151002 296.212292,10.5890755 L292.495625,10.782527 C292.295625,9.50949153 291.914375,8.49231125 291.356042,7.73514638 C290.797708,6.97590139 289.981042,6.41218798 288.906042,6.03984592 L286.649792,16.8315254 C289.543542,18.0192758 291.531042,19.3131125 292.614375,20.7151156 C293.695625,22.1171186 294.235208,23.6772111 294.235208,25.3933128 C294.235208,27.0241294 293.751875,28.6528659 292.785208,30.2836826 C291.818542,31.9144992 290.539375,33.10849 288.949792,33.867735 C287.360208,34.6248998 285.526875,35.0055624 283.447708,35.0055624 C283.306042,35.0055624 283.103958,34.9972419 282.847708,34.982681 L282.072708,38.6520185 L279.945625,38.6520185 L280.762292,34.7247458 Z" id="Fill-40" fill="#FFCC0C"></path><path d="M23.2585417,78.6059861 L28.679375,78.6059861 C32.941875,78.6059861 35.9377083,77.8675424 37.6627083,76.3885747 C39.3877083,74.9096071 40.2502083,73.0146148 40.2502083,70.7077581 C40.2502083,68.4653852 39.5022917,66.5641525 38.004375,65.0040601 C36.5064583,63.4439676 33.691875,62.6639214 29.5564583,62.6639214 L23.2585417,62.6639214 L23.2585417,78.6059861 Z M1.041875,48.1363405 L37.8085417,48.1363405 C45.816875,48.1363405 51.8147917,50.0375732 55.8022917,53.8400385 C59.7897917,57.6425039 61.7835417,63.0529045 61.7835417,70.0733205 C61.7835417,77.2892681 59.610625,82.9284823 55.2647917,86.990963 C50.9189583,91.0534438 44.2877083,93.0857242 35.366875,93.0857242 L23.2585417,93.0857242 L23.2585417,119.607296 L1.041875,119.607296 L1.041875,48.1363405 Z" id="Fill-42" fill="#FFCC0C"></path><path d="M99.8304167,92.3541448 L91.9304167,66.6604622 L84.1116667,92.3541448 L99.8304167,92.3541448 Z M104.42,107.809461 L79.3054167,107.809461 L75.8179167,119.60792 L53.2325,119.60792 L80.1366667,48.1348844 L104.26375,48.1348844 L131.16375,119.60792 L107.999167,119.60792 L104.42,107.809461 Z" id="Fill-44" fill="#FFCC0C"></path><polygon id="Fill-46" fill="#FFCC0C" points="118.77625 48.1353005 139.784583 48.1353005 147.349167 88.1464715 158.42 48.1353005 179.353333 48.1353005 190.45125 88.0944684 198.022083 48.1353005 218.922083 48.1353005 203.142917 119.606256 181.453333 119.606256 168.899167 74.6090293 156.392917 119.606256 134.703333 119.606256"></polygon><polygon id="Fill-48" fill="#FFCC0C" points="230.507917 48.1353005 251.162083 48.1353005 278.11625 87.6784438 278.11625 48.1353005 298.964167 48.1353005 298.964167 119.606256 278.11625 119.606256 251.307917 80.3647304 251.307917 119.606256 230.507917 119.606256"></polygon><path d="M23.2585417,78.6059861 L28.679375,78.6059861 C32.941875,78.6059861 35.9377083,77.8675424 37.6627083,76.3885747 C39.3877083,74.9096071 40.2502083,73.0146148 40.2502083,70.7077581 C40.2502083,68.4653852 39.5022917,66.5641525 38.004375,65.0040601 C36.5064583,63.4439676 33.691875,62.6639214 29.5564583,62.6639214 L23.2585417,62.6639214 L23.2585417,78.6059861 L23.2585417,78.6059861 Z M1.041875,48.1363405 L37.8085417,48.1363405 C45.816875,48.1363405 51.8147917,50.0375732 55.8022917,53.8400385 C59.7897917,57.6425039 61.7835417,63.0529045 61.7835417,70.0733205 C61.7835417,77.2892681 59.610625,82.9284823 55.2647917,86.990963 C50.9189583,91.0534438 44.2877083,93.0857242 35.366875,93.0857242 L23.2585417,93.0857242 L23.2585417,119.607296 L1.041875,119.607296 L1.041875,48.1363405 L1.041875,48.1363405 Z" id="Stroke-50" stroke="#293980" stroke-width="5"></path><path d="M99.8304167,92.3541448 L91.9304167,66.6604622 L84.1116667,92.3541448 L99.8304167,92.3541448 L99.8304167,92.3541448 Z M104.42,107.809461 L79.3054167,107.809461 L75.8179167,119.60792 L53.2325,119.60792 L80.1366667,48.1348844 L104.26375,48.1348844 L131.16375,119.60792 L107.999167,119.60792 L104.42,107.809461 L104.42,107.809461 Z" id="Stroke-52" stroke="#293980" stroke-width="5"></path><polygon id="Stroke-54" stroke="#293980" stroke-width="5" points="118.77625 48.1353005 139.784583 48.1353005 147.349167 88.1464715 158.42 48.1353005 179.353333 48.1353005 190.45125 88.0944684 198.022083 48.1353005 218.922083 48.1353005 203.142917 119.606256 181.453333 119.606256 168.899167 74.6090293 156.392917 119.606256 134.703333 119.606256"></polygon><polygon id="Stroke-56" stroke="#293980" stroke-width="5" points="230.507917 48.1353005 251.162083 48.1353005 278.11625 87.6784438 278.11625 48.1353005 298.964167 48.1353005 298.964167 119.606256 278.11625 119.606256 251.307917 80.3647304 251.307917 119.606256 230.507917 119.606256"></polygon><path d="M23.2585417,78.6059861 L28.679375,78.6059861 C32.941875,78.6059861 35.9377083,77.8675424 37.6627083,76.3885747 C39.3877083,74.9096071 40.2502083,73.0146148 40.2502083,70.7077581 C40.2502083,68.4653852 39.5022917,66.5641525 38.004375,65.0040601 C36.5064583,63.4439676 33.691875,62.6639214 29.5564583,62.6639214 L23.2585417,62.6639214 L23.2585417,78.6059861 Z M1.041875,48.1363405 L37.8085417,48.1363405 C45.816875,48.1363405 51.8147917,50.0375732 55.8022917,53.8400385 C59.7897917,57.6425039 61.7835417,63.0529045 61.7835417,70.0733205 C61.7835417,77.2892681 59.610625,82.9284823 55.2647917,86.990963 C50.9189583,91.0534438 44.2877083,93.0857242 35.366875,93.0857242 L23.2585417,93.0857242 L23.2585417,119.607296 L1.041875,119.607296 L1.041875,48.1363405 Z" id="Fill-58" fill="#FFCC0C"></path><path d="M99.8304167,92.3541448 L91.9304167,66.6604622 L84.1116667,92.3541448 L99.8304167,92.3541448 Z M104.42,107.809461 L79.3054167,107.809461 L75.8179167,119.60792 L53.2325,119.60792 L80.1366667,48.1348844 L104.26375,48.1348844 L131.16375,119.60792 L107.999167,119.60792 L104.42,107.809461 Z" id="Fill-60" fill="#FFCC0C"></path><polygon id="Fill-62" fill="#FFCC0C" points="118.77625 48.1353005 139.784583 48.1353005 147.349167 88.1464715 158.42 48.1353005 179.353333 48.1353005 190.45125 88.0944684 198.022083 48.1353005 218.922083 48.1353005 203.142917 119.606256 181.453333 119.606256 168.899167 74.6090293 156.392917 119.606256 134.703333 119.606256"></polygon><polygon id="Fill-64" fill="#FFCC0C" points="230.507917 48.1353005 251.162083 48.1353005 278.11625 87.6784438 278.11625 48.1353005 298.964167 48.1353005 298.964167 119.606256 278.11625 119.606256 251.307917 80.3647304 251.307917 119.606256 230.507917 119.606256"></polygon></g></g></g></g></svg>