<?xml version="1.0" encoding="UTF-8" standalone="no"?>
<svg width="52px" height="78px" viewBox="0 0 52 78" version="1.1" xmlns="http://www.w3.org/2000/svg" xmlns:xlink="http://www.w3.org/1999/xlink">
    <!-- Generator: Sketch 3.8.3 (29802) - http://www.bohemiancoding.com/sketch -->
    <title>phone-icon</title>
    <desc>Created with Sketch.</desc>
    <defs>
        <path d="M37.7346667,0 L6.01591667,0 C2.69733333,0 0,2.82216667 0,6.28891667 L0,63.7110833 C0,67.1784167 2.69733333,70 6.01591667,70 L37.7346667,70 C41.055,70 43.75,67.1784167 43.75,63.7110833 L43.75,6.28891667 C43.75,2.82216667 41.055,0 37.7346667,0 L37.7346667,0 L37.7346667,0 Z" id="path-1"></path>
        <mask id="mask-2" maskContentUnits="userSpaceOnUse" maskUnits="objectBoundingBox" x="-4" y="-4" width="51.75" height="78">
            <rect x="-4" y="-4" width="51.75" height="78" fill="white"></rect>
            <use xlink:href="#path-1" fill="black"></use>
        </mask>
    </defs>
    <g id="Page-1" stroke="none" stroke-width="1" fill="none" fill-rule="evenodd">
        <g id="Desktop-Copy" transform="translate(-274.000000, -428.000000)">
            <g id="phone-icon" transform="translate(278.000000, 432.000000)">
                <use stroke="#20276E" mask="url(#mask-2)" stroke-width="8" xlink:href="#path-1"></use>
                <path d="M38.0788333,56.7501667 L5.67116667,56.7501667 C5.00908333,56.7501667 4.47241667,56.2135 4.47241667,55.5514167 L4.47241667,11.6345833 C4.47241667,10.9725 5.00908333,10.4358333 5.67116667,10.4358333 L38.0788333,10.4358333 C38.7409167,10.4358333 39.2775833,10.9725 39.2775833,11.6345833 L39.2775833,55.5514167 C39.2775833,56.2135 38.7409167,56.7501667 38.0788333,56.7501667 L38.0788333,56.7501667 L38.0788333,56.7501667 Z" id="Path" stroke="#20276E" stroke-width="4"></path>
                <path d="M25.15625,63.65625 C25.15625,61.845 23.6885833,60.375 21.875,60.375 C20.0614167,60.375 18.59375,61.845 18.59375,63.65625 C18.59375,65.4675 20.0614167,66.9375 21.875,66.9375 C23.6885833,66.9375 25.15625,65.4675 25.15625,63.65625 L25.15625,63.65625 Z" id="Path" fill="#20276E"></path>
                <path d="M17.5,3.0625 C16.2901667,3.0625 15.3125,4.04075 15.3125,5.25 C15.3125,6.45983333 16.2901667,7.4375 17.5,7.4375 L26.25,7.4375 C27.4598333,7.4375 28.4375,6.45983333 28.4375,5.25 C28.4375,4.04075 27.4598333,3.0625 26.25,3.0625 L17.5,3.0625 L17.5,3.0625 Z" id="Path" fill="#20276E"></path>
            </g>
        </g>
    </g>
</svg>