<?xml version="1.0" encoding="UTF-8" standalone="no"?>
<svg width="86px" height="86px" viewBox="0 0 86 86" version="1.1" xmlns="http://www.w3.org/2000/svg" xmlns:xlink="http://www.w3.org/1999/xlink">
    <!-- Generator: Sketch 3.8.3 (29802) - http://www.bohemiancoding.com/sketch -->
    <title>tool-icon copy</title>
    <desc>Created with Sketch.</desc>
    <defs></defs>
    <g id="Page-1" stroke="none" stroke-width="1" fill="none" fill-rule="evenodd">
        <g id="Desktop-Copy" transform="translate(-254.000000, -825.000000)" stroke="#20276E" stroke-width="4">
            <path d="M301.904667,872.904667 L306.123333,877.123333 L301.904667,872.904667 Z M269.632,840.631333 L292.214667,863.214667 L269.632,840.631333 Z M322.758,857.873333 L317.084,857.891333 L268.612,905.833333 L260.006,908 L257,905.156667 L259.51,896.59 L307.185333,847.938 L307.203333,842.232 C307.225333,835.099333 310.794,828.044 324.98,828 L319.978667,839.516667 L325.634667,845.382667 L337,839.997333 C336.955333,854.262 329.851333,857.850667 322.758,857.873333 L322.758,857.873333 Z M257,830.807333 L259.807333,828 L273.842,836.421333 L265.421333,844.842 L257,830.807333 L257,830.807333 Z M337,899.579333 L328.579333,908 L301.913333,881.334 L310.334,872.913333 L337,899.579333 L337,899.579333 Z" id="tool-icon-copy"></path>
        </g>
    </g>
</svg>